<svg xmlns="http://www.w3.org/2000/svg" viewBox="0 0 234 300"><defs><style>.cls-1{fill:#fbfced;}.cls-2{fill:#b52b2a;}.cls-3{fill:#333;}.cls-4{fill:#ababab;}.cls-5{fill:#efeee6;}</style></defs><title>calendar</title><g id="Layer_2" data-name="Layer 2"><g id="Layer_3" data-name="Layer 3"><rect class="cls-1" x="2" width="230" height="300" rx="10" ry="10"/><path class="cls-2" d="M10,0H224a10,10,0,0,1,10,10V70a0,0,0,0,1,0,0H0a0,0,0,0,1,0,0V10A10,10,0,0,1,10,0Z"/><path class="cls-3" d="M76.18,176.32h28a10.26,10.26,0,0,1,6.39,1.72,5.62,5.62,0,0,1,2.2,4.68,6.2,6.2,0,0,1-1.74,4.45,7,7,0,0,1-5.3,1.83H66.24A8.53,8.53,0,0,1,60,186.77a7.14,7.14,0,0,1-2.26-5.24,13.54,13.54,0,0,1,1.45-5.13,18.64,18.64,0,0,1,3.17-5q7.14-7.41,12.89-12.7a83.88,83.88,0,0,1,8.22-7,47,47,0,0,0,7.33-6.25A25.05,25.05,0,0,0,95.22,139a15.32,15.32,0,0,0,1.53-6.47,11.6,11.6,0,0,0-1.64-6.15,11.43,11.43,0,0,0-4.45-4.22,13,13,0,0,0-6.16-1.5,12.56,12.56,0,0,0-11.06,6.18,26,26,0,0,0-1.8,4.4,18.25,18.25,0,0,1-2.85,5.53,5.64,5.64,0,0,1-4.64,1.94A6,6,0,0,1,59.69,137a6.53,6.53,0,0,1-1.77-4.83,20.17,20.17,0,0,1,1.66-7.73,22.24,22.24,0,0,1,5-7.31,24.64,24.64,0,0,1,8.38-5.29,32.2,32.2,0,0,1,11.9-2,34.56,34.56,0,0,1,14,2.57,21.32,21.32,0,0,1,6.6,4.73,22.25,22.25,0,0,1,6,15.15,22.92,22.92,0,0,1-3.3,12.11,38.06,38.06,0,0,1-6.75,8.54Q98,156,89.9,162.57a87.28,87.28,0,0,0-11.09,10.26A30.15,30.15,0,0,0,76.18,176.32Z"/><path class="cls-3" d="M167.92,123.53H142.41l-3.07,17.4q7.64-4.08,14.08-4.08a24.09,24.09,0,0,1,9.64,1.93,24.52,24.52,0,0,1,13.18,13.43,26,26,0,0,1,1.94,10,29.18,29.18,0,0,1-3.49,14.18,25.79,25.79,0,0,1-10.07,10.15,30,30,0,0,1-15.18,3.76q-9.62,0-15.6-3.54t-8.49-8.14a17.44,17.44,0,0,1-2.5-8,5.79,5.79,0,0,1,1.75-4,5.69,5.69,0,0,1,4.38-1.88c3,0,5.24,1.73,6.71,5.21a18.27,18.27,0,0,0,5.8,7.44,13.57,13.57,0,0,0,8.17,2.65,12.49,12.49,0,0,0,7.25-2.14,14,14,0,0,0,4.8-5.91,20.6,20.6,0,0,0,1.7-8.54,19.47,19.47,0,0,0-1.83-8.81,12.68,12.68,0,0,0-4.89-5.45,13.19,13.19,0,0,0-6.82-1.8c-3.08,0-5.28.37-6.61,1.13a58.49,58.49,0,0,0-5.72,3.94q-3.72,2.82-6.15,2.82a6.65,6.65,0,0,1-4.67-1.9,5.8,5.8,0,0,1-2-4.33c0-.18.2-1.39.59-3.65l4.51-25.73c.5-3.08,1.43-5.31,2.8-6.71s3.58-2.1,6.66-2.1H167.6q8.37,0,8.37,6.4a5.62,5.62,0,0,1-2,4.51A9.15,9.15,0,0,1,167.92,123.53Z"/><path class="cls-3" d="M62.65,218.05H74a30.44,30.44,0,0,1,7.59.82A13.92,13.92,0,0,1,87.32,222Q94,227.7,94,239.41a34.21,34.21,0,0,1-.67,7.06,21.14,21.14,0,0,1-2.08,5.76,17.86,17.86,0,0,1-3.61,4.58,14.56,14.56,0,0,1-3.78,2.49,16.65,16.65,0,0,1-4.4,1.32,34.17,34.17,0,0,1-5.32.38H62.83a7.06,7.06,0,0,1-3.57-.72,3.33,3.33,0,0,1-1.57-2,12.59,12.59,0,0,1-.37-3.38v-31.5a5.59,5.59,0,0,1,1.26-4.07A5.59,5.59,0,0,1,62.65,218.05ZM66,224.94v29.15h6.6q2.16,0,3.39-.12a10.4,10.4,0,0,0,2.55-.59,6.91,6.91,0,0,0,2.29-1.32q4.37-3.69,4.36-12.71,0-6.36-1.92-9.52a8.54,8.54,0,0,0-4.73-4,23.18,23.18,0,0,0-6.79-.86Z"/><path class="cls-3" d="M130,224.76h-19.6v10.55h18.05a4.27,4.27,0,0,1,3,.89,3.06,3.06,0,0,1,1,2.36,3.14,3.14,0,0,1-1,2.39,4.2,4.2,0,0,1-3,.92H110.38v12.22h20.27a4.4,4.4,0,0,1,3.09.95,3.24,3.24,0,0,1,1,2.53,3.19,3.19,0,0,1-1,2.48,4.45,4.45,0,0,1-3.09.95H107a4.55,4.55,0,0,1-5.33-5.33V223.38a7.25,7.25,0,0,1,.55-3.06,3.51,3.51,0,0,1,1.75-1.73,7.34,7.34,0,0,1,3-.54h23a4.47,4.47,0,0,1,3.09.92,3.14,3.14,0,0,1,1,2.42,3.17,3.17,0,0,1-1,2.45A4.47,4.47,0,0,1,130,224.76Z"/><path class="cls-3" d="M178.29,247.44a11.5,11.5,0,0,1-1,4.43,16.3,16.3,0,0,1-8.72,8.43,20,20,0,0,1-7.85,1.43,27.42,27.42,0,0,1-6.18-.64,17.21,17.21,0,0,1-5.05-2,16.89,16.89,0,0,1-4.18-3.59,21.42,21.42,0,0,1-2.9-4.52,23.72,23.72,0,0,1-1.8-5.35,29.18,29.18,0,0,1-.6-6,26.64,26.64,0,0,1,1.51-9.28,19.59,19.59,0,0,1,4.32-7,18.9,18.9,0,0,1,6.59-4.44,21.44,21.44,0,0,1,8.06-1.52,20.06,20.06,0,0,1,9.28,2.08,16.76,16.76,0,0,1,6.24,5.14,10.12,10.12,0,0,1,2.17,5.79,3.77,3.77,0,0,1-1,2.63,3.38,3.38,0,0,1-2.55,1.15,3.53,3.53,0,0,1-2.51-.8,11.11,11.11,0,0,1-1.86-2.72,13.07,13.07,0,0,0-4-4.78,9.78,9.78,0,0,0-5.66-1.58A10.27,10.27,0,0,0,152,228.3q-3.18,4.08-3.18,11.58a21.59,21.59,0,0,0,1.4,8.33,10.57,10.57,0,0,0,4,5,11,11,0,0,0,6,1.64,10.57,10.57,0,0,0,6.34-1.86,11.23,11.23,0,0,0,3.92-5.47,9.35,9.35,0,0,1,1.37-2.76,3.11,3.11,0,0,1,2.64-1.07,3.72,3.72,0,0,1,2.67,1.08A3.61,3.61,0,0,1,178.29,247.44Z"/><circle class="cls-4" cx="37" cy="35" r="6.5"/><circle class="cls-4" cx="197" cy="35" r="6.5"/><path class="cls-5" d="M216.39,283.61,200,300V278a10,10,0,0,1,10-10h22Z"/></g></g></svg>