<svg xmlns="http://www.w3.org/2000/svg" viewBox="0 0 385 506.2"><defs><style>.cls-1,.cls-7{fill:none;}.cls-1{stroke:#25513d;stroke-linecap:round;stroke-miterlimit:10;stroke-width:3.5px;}.cls-2{fill:#3f475c;}.cls-3{fill:#00ac65;}.cls-4{fill:#efc41c;}.cls-5{fill:#b52b2a;}.cls-6{fill:#56a8dd;}</style></defs><title>deco</title><g id="Layer_2" data-name="Layer 2"><g id="Layer_1-2" data-name="Layer 1"><path class="cls-1" d="M137.11,1.75s80.3,67,164.1,92.34"/><path class="cls-1" d="M315.05,118.07s-63.25,42.56-143.93,66S64.7,207.52,64.7,207.52"/><path class="cls-1" d="M45.19,241.3S131.84,292.85,199.78,316s143,16.54,143,16.54"/><path class="cls-1" d="M359.68,361.85S270.9,412.1,173.24,437.22s-152.8,20-152.8,20"/><path class="cls-2" d="M147.79,23.13h0a4,4,0,0,0,4-4V5.3a4,4,0,0,0-4-4h0a4,4,0,0,0-4,4V19.1A4,4,0,0,0,147.79,23.13Z"/><path class="cls-3" d="M147.79,36.5h0A11.16,11.16,0,0,0,159,25.34V24.13A11.17,11.17,0,0,0,147.79,13h0a11.17,11.17,0,0,0-11.17,11.17v1.21A11.17,11.17,0,0,0,147.79,36.5Z"/><path class="cls-2" d="M274.63,159.26h0a4,4,0,0,0,4-4v-13.8a4,4,0,0,0-4-4h0a4,4,0,0,0-4,4v13.8A4,4,0,0,0,274.63,159.26Z"/><path class="cls-3" d="M274.63,172.64h0a11.17,11.17,0,0,0,11.17-11.17v-1.21a11.17,11.17,0,0,0-11.17-11.16h0a11.17,11.17,0,0,0-11.17,11.16v1.21A11.17,11.17,0,0,0,274.63,172.64Z"/><path class="cls-2" d="M69.62,270.29h0a4,4,0,0,0,4-4v-13.8a4,4,0,0,0-4-4h0a4,4,0,0,0-4,4v13.8A4,4,0,0,0,69.62,270.29Z"/><path class="cls-3" d="M69.62,283.66h0A11.16,11.16,0,0,0,80.79,272.5v-1.21a11.16,11.16,0,0,0-11.17-11.16h0a11.16,11.16,0,0,0-11.17,11.16v1.21A11.16,11.16,0,0,0,69.62,283.66Z"/><path class="cls-2" d="M331,347.78h0a4,4,0,0,0,4-4V330a4,4,0,0,0-4-4h0a4,4,0,0,0-4,4v13.8A4,4,0,0,0,331,347.78Z"/><path class="cls-3" d="M331,361.16h0A11.17,11.17,0,0,0,342.2,350v-1.21A11.16,11.16,0,0,0,331,337.62h0a11.16,11.16,0,0,0-11.16,11.16V350A11.17,11.17,0,0,0,331,361.16Z"/><path class="cls-2" d="M65.59,471.15h0a4,4,0,0,0,4-4v-13.8a4,4,0,0,0-4-4h0a4,4,0,0,0-4,4v13.8A4,4,0,0,0,65.59,471.15Z"/><path class="cls-3" d="M65.59,484.52h0a11.16,11.16,0,0,0,11.17-11.16v-1.21A11.17,11.17,0,0,0,65.59,461h0a11.17,11.17,0,0,0-11.16,11.17v1.21A11.16,11.16,0,0,0,65.59,484.52Z"/><path class="cls-2" d="M192.6,58.35h0a4,4,0,0,0,4-4V40.53a4,4,0,0,0-4-4h0a4,4,0,0,0-4,4v13.8A4,4,0,0,0,192.6,58.35Z"/><path class="cls-4" d="M192.6,71.73h0a11.17,11.17,0,0,0,11.17-11.17V59.35A11.17,11.17,0,0,0,192.6,48.19h0a11.17,11.17,0,0,0-11.17,11.16v1.21A11.17,11.17,0,0,0,192.6,71.73Z"/><path class="cls-2" d="M161.09,202.4h0a4,4,0,0,0,4-4v-13.8a4,4,0,0,0-4-4h0a4,4,0,0,0-4,4v13.8A4,4,0,0,0,161.09,202.4Z"/><path class="cls-4" d="M161.09,215.78h0a11.17,11.17,0,0,0,11.16-11.17v-1.2a11.17,11.17,0,0,0-11.16-11.17h0a11.17,11.17,0,0,0-11.17,11.17v1.2A11.17,11.17,0,0,0,161.09,215.78Z"/><path class="cls-2" d="M189.87,326.8h0a4,4,0,0,0,4-4V309a4,4,0,0,0-4-4h0a4,4,0,0,0-4,4v13.8A4,4,0,0,0,189.87,326.8Z"/><path class="cls-4" d="M189.87,340.18h0A11.17,11.17,0,0,0,201,329v-1.2a11.17,11.17,0,0,0-11.17-11.17h0a11.17,11.17,0,0,0-11.16,11.17V329A11.17,11.17,0,0,0,189.87,340.18Z"/><path class="cls-2" d="M229.94,434h0a4,4,0,0,0,4-4v-13.8a4,4,0,0,0-4-4h0a4,4,0,0,0-4,4V430A4,4,0,0,0,229.94,434Z"/><path class="cls-4" d="M229.94,447.41h0a11.16,11.16,0,0,0,11.16-11.16V435a11.16,11.16,0,0,0-11.16-11.17h0A11.17,11.17,0,0,0,218.77,435v1.21A11.17,11.17,0,0,0,229.94,447.41Z"/><path class="cls-2" d="M238.89,84.69h0a4,4,0,0,0,4-4V66.87a4,4,0,0,0-4-4h0a4,4,0,0,0-4,4v13.8A4,4,0,0,0,238.89,84.69Z"/><path class="cls-5" d="M238.89,98.07h0A11.17,11.17,0,0,0,250.05,86.9V85.7a11.17,11.17,0,0,0-11.16-11.17h0A11.17,11.17,0,0,0,227.72,85.7v1.2A11.17,11.17,0,0,0,238.89,98.07Z"/><path class="cls-2" d="M218.77,182.72h0a4,4,0,0,0,4-4v-13.8a4,4,0,0,0-4-4h0a4,4,0,0,0-4,4v13.8A4,4,0,0,0,218.77,182.72Z"/><path class="cls-5" d="M218.77,196.09h0a11.17,11.17,0,0,0,11.17-11.16v-1.21a11.17,11.17,0,0,0-11.17-11.17h0a11.17,11.17,0,0,0-11.16,11.17v1.21A11.16,11.16,0,0,0,218.77,196.09Z"/><path class="cls-2" d="M126.65,300.4h0a4,4,0,0,0,4-4v-13.8a4,4,0,0,0-4-4h0a4,4,0,0,0-4,4v13.8A4,4,0,0,0,126.65,300.4Z"/><path class="cls-5" d="M126.65,313.78h0a11.17,11.17,0,0,0,11.16-11.17V301.4a11.16,11.16,0,0,0-11.16-11.16h0a11.17,11.17,0,0,0-11.17,11.16v1.21A11.17,11.17,0,0,0,126.65,313.78Z"/><path class="cls-2" d="M306.89,403.92h0a4,4,0,0,0,4-4V386.1a4,4,0,0,0-4-4h0a4,4,0,0,0-4,4v13.8A4,4,0,0,0,306.89,403.92Z"/><path class="cls-5" d="M306.89,417.3h0a11.17,11.17,0,0,0,11.17-11.17v-1.2a11.17,11.17,0,0,0-11.17-11.17h0a11.17,11.17,0,0,0-11.16,11.17v1.2A11.17,11.17,0,0,0,306.89,417.3Z"/><path class="cls-2" d="M289.82,108.15h0a4,4,0,0,0,4-4V90.32a4,4,0,0,0-4-4h0a4,4,0,0,0-4,4v13.8A4,4,0,0,0,289.82,108.15Z"/><path class="cls-6" d="M289.82,121.52h0A11.16,11.16,0,0,0,301,110.36v-1.21A11.16,11.16,0,0,0,289.82,98h0a11.16,11.16,0,0,0-11.17,11.16v1.21A11.16,11.16,0,0,0,289.82,121.52Z"/><path class="cls-2" d="M98.28,217.06h0a4,4,0,0,0,4-4v-13.8a4,4,0,0,0-4-4h0a4,4,0,0,0-4,4V213A4,4,0,0,0,98.28,217.06Z"/><path class="cls-6" d="M98.28,230.44h0a11.16,11.16,0,0,0,11.16-11.17v-1.2A11.16,11.16,0,0,0,98.28,206.9h0a11.17,11.17,0,0,0-11.17,11.17v1.2A11.17,11.17,0,0,0,98.28,230.44Z"/><path class="cls-2" d="M261.91,345.25h0a4,4,0,0,0,4-4v-13.8a4,4,0,0,0-4-4h0a4,4,0,0,0-4,4v13.8A4,4,0,0,0,261.91,345.25Z"/><path class="cls-6" d="M261.91,358.62h0a11.16,11.16,0,0,0,11.16-11.16v-1.21a11.16,11.16,0,0,0-11.16-11.17h0a11.17,11.17,0,0,0-11.17,11.17v1.21A11.17,11.17,0,0,0,261.91,358.62Z"/><path class="cls-2" d="M149.92,457.71h0a4,4,0,0,0,4-4v-13.8a4,4,0,0,0-4-4h0a4,4,0,0,0-4,4v13.8A4,4,0,0,0,149.92,457.71Z"/><path class="cls-6" d="M149.92,471.08h0a11.17,11.17,0,0,0,11.17-11.16v-1.21a11.17,11.17,0,0,0-11.17-11.17h0a11.16,11.16,0,0,0-11.16,11.17v1.21A11.16,11.16,0,0,0,149.92,471.08Z"/><rect class="cls-7" y="0.2" width="385" height="506"/></g></g></svg>