<svg xmlns="http://www.w3.org/2000/svg" viewBox="0 0 239.36 125"><defs><style>.cls-1{fill:#606161;}.cls-2{fill:#333;}</style></defs><title>pot</title><g id="Layer_2" data-name="Layer 2"><g id="Layer_1-2" data-name="Layer 1"><path class="cls-1" d="M210.59,125H28.76a10,10,0,0,1-10-9L8.73,11a10,10,0,0,1,10-11h202a10,10,0,0,1,10,11L220.55,116A10,10,0,0,1,210.59,125Z"/><path class="cls-2" d="M233,32H6.38a5,5,0,0,1-5-4.69L0,5.31A5,5,0,0,1,5,0H234.36a5,5,0,0,1,5,5.31l-1.38,22A5,5,0,0,1,233,32Z"/></g></g></svg>