<svg xmlns="http://www.w3.org/2000/svg" viewBox="0 0 93.84 89.86"><defs><style>.cls-1{fill:#fdd800;}</style></defs><title>star</title><g id="Layer_2" data-name="Layer 2"><g id="Layer_1-2" data-name="Layer 1"><path class="cls-1" d="M41.26,3.52,31.65,23a6.31,6.31,0,0,1-4.76,3.46L5.41,29.56a6.32,6.32,0,0,0-3.5,10.77L17.46,55.48a6.32,6.32,0,0,1,1.81,5.59L15.6,82.47a6.31,6.31,0,0,0,9.17,6.65L44,79a6.36,6.36,0,0,1,5.88,0l19.21,10.1a6.31,6.31,0,0,0,9.16-6.65l-3.67-21.4a6.32,6.32,0,0,1,1.82-5.59L91.92,40.33a6.31,6.31,0,0,0-3.5-10.77L66.94,26.44A6.31,6.31,0,0,1,62.19,23L52.58,3.52A6.31,6.31,0,0,0,41.26,3.52Z"/></g></g></svg>