<svg xmlns="http://www.w3.org/2000/svg" viewBox="0 0 385 695.13"><defs><style>.cls-1{fill:#8b5f3d;}.cls-2{fill:#398262;}.cls-3{fill:#306c51;}.cls-4{fill:#337558;}.cls-5{fill:#3e8f6c;}</style></defs><title>tree</title><g id="Layer_2" data-name="Layer 2"><g id="Layer_1-2" data-name="Layer 1"><rect class="cls-1" x="144.94" y="536.6" width="95.12" height="158.53"/><path class="cls-2" d="M92.6,226.4H292.4l57.54,99.67a10.63,10.63,0,0,1-9.2,15.94H44.26a10.63,10.63,0,0,1-9.2-15.94Z"/><path class="cls-3" d="M60.25,455.47h264.5l58.81,101.86a10.62,10.62,0,0,1-9.2,15.94H10.64a10.62,10.62,0,0,1-9.2-15.94Z"/><path class="cls-4" d="M356.52,455.47h-328a10.63,10.63,0,0,1-9.2-15.94L75.58,342H309.42l56.3,97.52A10.63,10.63,0,0,1,356.52,455.47Z"/><path class="cls-5" d="M169.13,13.49a27,27,0,0,1,46.74,0l113.72,197a10.62,10.62,0,0,1-9.2,15.94H64.61a10.62,10.62,0,0,1-9.2-15.94Z"/></g></g></svg>